HIERARCHY
ROOT hip
{
  OFFSET 0.00112043 5.09927 -9.65472
  CHANNELS 6 Xposition Yposition Zposition Zrotation Xrotation Yrotation
  JOINT abdomen
  {
    OFFSET 0 -1.186 -1.5018
    CHANNELS 3 Zrotation Xrotation Yrotation
    JOINT abdomen2
    {
      OFFSET 0 9.964 0.2134
      CHANNELS 3 Zrotation Xrotation Yrotation
      JOINT chest
      {
        OFFSET 0 13.134 -3.2573
        CHANNELS 3 Zrotation Xrotation Yrotation
        JOINT neck
        {
          OFFSET 0 20.686 -1.6905
          CHANNELS 3 Zrotation Xrotation Yrotation
          JOINT head
          {
            OFFSET 0 7.238 -0.1237
            CHANNELS 3 Zrotation Xrotation Yrotation
            End Site
            {
              OFFSET 0 0 0
            }
          }
        }
        JOINT lCollar
        {
          OFFSET 1.7069 20.075 5.0056
          CHANNELS 3 Zrotation Xrotation Yrotation
          JOINT lShldr
          {
            OFFSET 13.6458 -0.047 -4.849
            CHANNELS 3 Zrotation Xrotation Yrotation
            JOINT lForeArm
            {
              OFFSET 28.3255 -0.9759 2.2888
              CHANNELS 3 Zrotation Xrotation Yrotation
              JOINT lHand
              {
                OFFSET 22.1583 -0.53 10.8316
                CHANNELS 3 Zrotation Xrotation Yrotation
                JOINT lThumb1
                {
                  OFFSET 0.786 0.112 2.5817
                  CHANNELS 3 Zrotation Xrotation Yrotation
                  JOINT lThumb2
                  {
                    OFFSET 0.3601 -0.878 4.2331
                    CHANNELS 3 Zrotation Xrotation Yrotation
                    JOINT lThumb2_End
                    {
                      OFFSET 1.8127 -1.216 2.2227
                      CHANNELS 3 Zrotation Xrotation Yrotation
                      End Site
                      {
                        OFFSET 0.0181 -0.0122 0.0222
                      }
                    }
                  }
                }
                JOINT lCarpal1
                {
                  OFFSET 0.9571 1.114 1.7695
                  CHANNELS 3 Zrotation Xrotation Yrotation
                  JOINT lIndex1
                  {
                    OFFSET 4.1246 0.487 4.1451
                    CHANNELS 3 Zrotation Xrotation Yrotation
                    JOINT lIndex2
                    {
                      OFFSET 3.4052 -1.454 2.7682
                      CHANNELS 3 Zrotation Xrotation Yrotation
                      JOINT lIndex2_End
                      {
                        OFFSET 1.4531 -1.795 1.2713
                        CHANNELS 3 Zrotation Xrotation Yrotation
                        End Site
                        {
                          OFFSET 0.0145 -0.0179 0.0127
                        }
                      }
                    }
                  }
                  JOINT lMid1
                  {
                    OFFSET 5.6954 0.21 2.1184
                    CHANNELS 3 Zrotation Xrotation Yrotation
                    JOINT lMid2
                    {
                      OFFSET 3.9766 -1.54 2.3863
                      CHANNELS 3 Zrotation Xrotation Yrotation
                      JOINT lMid2_End
                      {
                        OFFSET 1.4042 -1.926 1.125
                        CHANNELS 3 Zrotation Xrotation Yrotation
                        End Site
                        {
                          OFFSET 0.014 -0.0193 0.0113
                        }
                      }
                    }
                  }
                }
                JOINT lCarpal2
                {
                  OFFSET 2.0956 0.66 -0.3894
                  CHANNELS 3 Zrotation Xrotation Yrotation
                  JOINT lRing1
                  {
                    OFFSET 5.0395 -0.09 2.4971
                    CHANNELS 3 Zrotation Xrotation Yrotation
                    JOINT lRing2
                    {
                      OFFSET 3.7921 -1.552 1.4806
                      CHANNELS 3 Zrotation Xrotation Yrotation
                      JOINT lRing2_End
                      {
                        OFFSET 1.4655 -1.808 0.9609
                        CHANNELS 3 Zrotation Xrotation Yrotation
                        End Site
                        {
                          OFFSET 0.0147 -0.0181 0.0096
                        }
                      }
                    }
                  }
                  JOINT lPinky1
                  {
                    OFFSET 4.9141 -1.269 0.3591
                    CHANNELS 3 Zrotation Xrotation Yrotation
                    JOINT lPinky2
                    {
                      OFFSET 3.1477 -1.685 0.8462
                      CHANNELS 3 Zrotation Xrotation Yrotation
                      JOINT lPinky2_End
                      {
                        OFFSET 0.8055 -1.585 0.7955
                        CHANNELS 3 Zrotation Xrotation Yrotation
                        End Site
                        {
                          OFFSET 0.0081 -0.0158 0.008
                        }
                      }
                    }
                  }
                }
              }
            }
          }
        }
        JOINT rCollar
        {
          OFFSET -1.7069 20.075 5.0056
          CHANNELS 3 Zrotation Xrotation Yrotation
          JOINT rShldr
          {
            OFFSET -13.6458 -0.047 -4.849
            CHANNELS 3 Zrotation Xrotation Yrotation
            JOINT rForeArm
            {
              OFFSET -28.3255 -0.9759 2.2888
              CHANNELS 3 Zrotation Xrotation Yrotation
              JOINT rHand
              {
                OFFSET -22.1583 -0.53 10.8316
                CHANNELS 3 Zrotation Xrotation Yrotation
                JOINT rThumb1
                {
                  OFFSET -0.786 0.112 2.5817
                  CHANNELS 3 Zrotation Xrotation Yrotation
                  JOINT rThumb2
                  {
                    OFFSET -0.3601 -0.878 4.2331
                    CHANNELS 3 Zrotation Xrotation Yrotation
                    JOINT rThumb2_End
                    {
                      OFFSET -1.8127 -1.216 2.2227
                      CHANNELS 3 Zrotation Xrotation Yrotation
                      End Site
                      {
                        OFFSET -0.0181 -0.0122 0.0222
                      }
                    }
                  }
                }
                JOINT rCarpal1
                {
                  OFFSET -0.9571 1.114 1.7695
                  CHANNELS 3 Zrotation Xrotation Yrotation
                  JOINT rIndex1
                  {
                    OFFSET -4.1246 0.487 4.1451
                    CHANNELS 3 Zrotation Xrotation Yrotation
                    JOINT rIndex2
                    {
                      OFFSET -3.4052 -1.454 2.7682
                      CHANNELS 3 Zrotation Xrotation Yrotation
                      JOINT rIndex2_End
                      {
                        OFFSET -1.4531 -1.795 1.2713
                        CHANNELS 3 Zrotation Xrotation Yrotation
                        End Site
                        {
                          OFFSET -0.0145 -0.018 0.0127
                        }
                      }
                    }
                  }
                  JOINT rMid1
                  {
                    OFFSET -5.6954 0.21 2.1184
                    CHANNELS 3 Zrotation Xrotation Yrotation
                    JOINT rMid2
                    {
                      OFFSET -3.9766 -1.54 2.3863
                      CHANNELS 3 Zrotation Xrotation Yrotation
                      JOINT rMid2_End
                      {
                        OFFSET -1.4042 -1.926 1.125
                        CHANNELS 3 Zrotation Xrotation Yrotation
                        End Site
                        {
                          OFFSET -0.014 -0.0193 0.0113
                        }
                      }
                    }
                  }
                }
                JOINT rCarpal2
                {
                  OFFSET -2.0956 0.66 -0.3894
                  CHANNELS 3 Zrotation Xrotation Yrotation
                  JOINT rRing1
                  {
                    OFFSET -5.0395 -0.09 2.4971
                    CHANNELS 3 Zrotation Xrotation Yrotation
                    JOINT rRing2
                    {
                      OFFSET -3.7921 -1.552 1.4806
                      CHANNELS 3 Zrotation Xrotation Yrotation
                      JOINT rRing2_End
                      {
                        OFFSET -1.4655 -1.808 0.9609
                        CHANNELS 3 Zrotation Xrotation Yrotation
                        End Site
                        {
                          OFFSET -0.0147 -0.0181 0.0096
                        }
                      }
                    }
                  }
                  JOINT rPinky1
                  {
                    OFFSET -4.9141 -1.269 0.3592
                    CHANNELS 3 Zrotation Xrotation Yrotation
                    JOINT rPinky2
                    {
                      OFFSET -3.1477 -1.685 0.8462
                      CHANNELS 3 Zrotation Xrotation Yrotation
                      JOINT rPinky2_End
                      {
                        OFFSET -0.8055 -1.585 0.7955
                        CHANNELS 3 Zrotation Xrotation Yrotation
                        End Site
                        {
                          OFFSET -0.0081 -0.0158 0.008
                        }
                      }
                    }
                  }
                }
              }
            }
          }
        }
      }
    }
  }
  JOINT lThigh
  {
    OFFSET 8.367 -8.2066 0.5982
    CHANNELS 3 Zrotation Xrotation Yrotation
    JOINT lShin
    {
      OFFSET 2.1923 -43.463 -0.4932
      CHANNELS 3 Zrotation Xrotation Yrotation
      JOINT lFoot
      {
        OFFSET 0.7333 -45.8593 -2.6451
        CHANNELS 3 Zrotation Xrotation Yrotation
        End Site
        {
          OFFSET 2.6618 -4.2699 12.3931
        }
      }
    }
  }
  JOINT rThigh
  {
    OFFSET -8.367 -8.2066 0.5982
    CHANNELS 3 Zrotation Xrotation Yrotation
    JOINT rShin
    {
      OFFSET -2.1923 -43.463 -0.4931
      CHANNELS 3 Zrotation Xrotation Yrotation
      JOINT rFoot
      {
        OFFSET -0.7333 -45.8593 -2.6451
        CHANNELS 3 Zrotation Xrotation Yrotation
        End Site
        {
          OFFSET -2.6618 -4.2699 12.3931
        }
      }
    }
  }
}
MOTION
Frames:	4
Frame Time:	0.0333333
0 91.7903 2.51682 0 0 -0 0 0 -0 0 0 -0 0 0 -0 0 0 -0 0 0 -0 0 0 -0 1.66051 0.0835086 5.75766 -0.0175111 0.895433 15.7816 7.95139e-016 -1.98785e-016 -0 5.46658e-016 -3.97569e-016 -0 5.96354e-016 0 -0 3.97569e-016 1.98785e-016 9.54166e-015 1.49089e-016 -3.97569e-016 -0 6.4605e-016 0 3.18055e-015 5.96354e-016 0 3.18055e-015 8.94531e-016 -1.98785e-016 6.36111e-015 6.4605e-016 0 3.18055e-015 5.96354e-016 0 3.18055e-015 8.94531e-016 -1.98785e-016 6.36111e-015 1.49089e-016 -3.97569e-016 -0 6.4605e-016 0 3.18055e-015 5.96354e-016 0 3.18055e-015 8.94531e-016 -1.98785e-016 6.36111e-015 6.4605e-016 0 3.18055e-015 5.96354e-016 0 3.18055e-015 8.94531e-016 -1.98785e-016 6.36111e-015 0 0 -0 -1.4496 0.0636048 -5.0245 -1.74811 1.20616 -16.8394 -1.19271e-015 1.98785e-016 -3.18055e-015 -3.97569e-016 1.98785e-016 -3.18055e-015 -2.98177e-016 1.98785e-016 -3.18055e-015 -2.98177e-016 3.97569e-016 -0 4.96962e-016 0 -6.36111e-015 -9.93923e-017 3.97569e-016 -0 -8.94531e-016 5.96354e-016 -0 -3.97569e-016 3.97569e-016 -0 -9.93923e-017 3.97569e-016 -0 -8.94531e-016 5.96354e-016 -0 -3.97569e-016 3.97569e-016 -0 4.96962e-016 0 -6.36111e-015 -9.93923e-017 3.97569e-016 -0 -8.94531e-016 5.96354e-016 -0 -3.97569e-016 3.97569e-016 -0 -9.93923e-017 3.97569e-016 -0 -8.94531e-016 5.96354e-016 -0 -3.97569e-016 3.97569e-016 -0 -4.66111 -0.998717 0.12318 0.00986924 1.54847 0.176523 4.65186 -0.572283 -0.254274 4.66111 -0.998765 -0.123176 -0.00986867 1.54869 -0.176537 -4.65186 -0.572453 0.25427 
31.2958 88.6069 4.08993 0 0.0724292 -0 -0.183764 3.02464 -0.0993233 -0.363029 6.04963 -0.189313 -0.36303 6.04963 -0.189313 -4.5329e-005 -0.555997 -6.57792e-007 -1.4784e-007 -0.454627 -1.27487e-007 -5.92789 -0.144057 -3.79025e-007 -41.1262 -0.336664 2.80431 0.158272 0.308134 -3.47095 -4.82289 1.90502 -0.00784931 -0 0 3.18055e-015 1.12875e-007 3.7672e-007 -7.57017e-007 9.93923e-015 1.59028e-015 -0 3.97569e-016 1.59028e-015 1.59028e-015 -5.96354e-015 -6.36111e-015 4.77083e-015 1.12875e-007 3.7672e-007 -7.57017e-007 5.96354e-015 -1.59028e-015 -1.59028e-015 -5.96354e-015 -6.36111e-015 4.77083e-015 1.12875e-007 3.7672e-007 -7.57017e-007 5.96354e-015 -1.59028e-015 -1.59028e-015 3.97569e-016 1.59028e-015 1.59028e-015 -5.96354e-015 -6.36111e-015 4.77083e-015 1.12875e-007 3.7672e-007 -7.57017e-007 5.96354e-015 -1.59028e-015 -1.59028e-015 -5.96354e-015 -6.36111e-015 4.77083e-015 1.12875e-007 3.7672e-007 -7.57017e-007 5.96354e-015 -1.59028e-015 -1.59028e-015 5.9253 -0.144238 9.16937e-007 41.3349 -0.346971 -2.07193 -1.94579 0.0882546 2.3874 4.80832 1.9324 0.0472226 -3.97569e-016 3.18055e-015 1.59028e-015 -6.36111e-015 4.77083e-015 1.59028e-015 8.6089e-008 -1.53634e-006 7.0657e-007 0 0 -0 -7.55382e-015 1.59028e-015 3.18055e-015 -2.78299e-015 3.18055e-015 1.59028e-015 8.6089e-008 -1.53634e-006 7.0657e-007 -7.55382e-015 1.59028e-015 3.18055e-015 -2.78299e-015 3.18055e-015 1.59028e-015 8.6089e-008 -1.53634e-006 7.0657e-007 0 0 -0 -7.55382e-015 1.59028e-015 3.18055e-015 -2.78299e-015 3.18055e-015 1.59028e-015 8.6089e-008 -1.53634e-006 7.0657e-007 -7.55382e-015 1.59028e-015 3.18055e-015 -2.78299e-015 3.18055e-015 1.59028e-015 8.6089e-008 -1.53634e-006 7.0657e-007 2.87548 -17.1912 10.2231 1.20819 30.3946 -0.252924 -7.26481 -12.4944 1.49021 -2.06347 -17.3275 -10.1352 -1.38042 30.6372 0.347055 6.64697 -12.8281 -1.7441 
45.3786 87.1225 4.7985 -0 -0.25347 -0 -0.256556 4.45642 -0.154488 -0.503312 8.91348 -0.290213 -0.503312 8.91348 -0.290213 -2.35142e-006 -1.06095 -2.35364e-006 -1.07173e-007 -0.659207 -6.61306e-008 -8.59545 -0.208844 3.45652e-006 -60.3929 -0.52504 1.4752 0.171343 0.0315414 -12.1337 -6.99508 2.7611 0.0409698 3.97569e-016 1.59028e-015 -4.77083e-015 -2.38542e-015 -1.59028e-015 -3.18055e-015 -1.71163e-008 -6.58389e-007 -5.33462e-007 1.98785e-016 1.59028e-015 -3.18055e-015 -1.98785e-015 0 -0 -4.41391e-032 -1.59028e-015 -1.59028e-015 -1.71163e-008 -6.58389e-007 -5.33462e-007 -1.98785e-015 0 -0 -4.41391e-032 -1.59028e-015 -1.59028e-015 -1.71163e-008 -6.58389e-007 -5.33462e-007 1.98785e-016 1.59028e-015 -3.18055e-015 -1.98785e-015 0 -0 -4.41391e-032 -1.59028e-015 -1.59028e-015 -1.71163e-008 -6.58389e-007 -5.33462e-007 -1.98785e-015 0 -0 -4.41391e-032 -1.59028e-015 -1.59028e-015 -1.71163e-008 -6.58389e-007 -5.33462e-007 8.59168 -0.209109 -4.29351e-006 60.6004 -0.531015 -0.743167 -1.9108 -0.42332 11.0383 6.97357 2.80186 0.0155059 -2.75224e-008 6.78549e-007 -5.08018e-007 9.829e-008 -5.08018e-007 -6.78549e-007 -2.75224e-008 6.78549e-007 -5.08018e-007 -7.95139e-016 -1.59028e-015 -1.59028e-015 -2.75224e-008 6.78549e-007 -5.08018e-007 9.829e-008 -5.08018e-007 -6.78549e-007 -2.75224e-008 6.78549e-007 -5.08018e-007 -2.75224e-008 6.78549e-007 -5.08018e-007 9.829e-008 -5.08018e-007 -6.78549e-007 -2.75224e-008 6.78549e-007 -5.08018e-007 -7.95139e-016 -1.59028e-015 -1.59028e-015 -2.75224e-008 6.78549e-007 -5.08018e-007 9.829e-008 -5.08018e-007 -6.78549e-007 -2.75224e-008 6.78549e-007 -5.08018e-007 -2.75224e-008 6.78549e-007 -5.08018e-007 9.829e-008 -5.08018e-007 -6.78549e-007 -2.75224e-008 6.78549e-007 -5.08018e-007 8.11113 -23.9347 15.4512 2.33746 43.6122 -0.619951 -12.2615 -18.0024 2.50888 -6.93678 -24.1367 -15.3351 -2.63193 43.9578 0.791631 11.3129 -18.4791 -2.88833 
42.2493 87.4833 4.6376 -0 -0.977794 -0 -0.238331 4.29615 -0.140113 -0.468073 8.59276 -0.263362 -0.468073 8.59277 -0.263362 -6.18195e-005 -1.51448 -2.9721e-006 -6.23992e-008 -0.613741 -6.95386e-008 -8.00266 -0.194476 -7.6452e-007 -56.1107 -0.483244 1.77055 0.172053 0.093128 -10.2087 -6.5122 2.57104 0.0273079 -1.08469e-007 -5.00724e-007 6.82711e-007 2.16937e-007 1.00145e-006 -1.36542e-006 -1.08469e-007 -5.00724e-007 6.82711e-007 -3.97569e-016 0 -4.77083e-015 -1.08469e-007 -5.00724e-007 6.82711e-007 2.16937e-007 1.00145e-006 -1.36542e-006 -1.08469e-007 -5.00724e-007 6.82711e-007 -1.08469e-007 -5.00724e-007 6.82711e-007 2.16937e-007 1.00145e-006 -1.36542e-006 -1.08469e-007 -5.00724e-007 6.82711e-007 -3.97569e-016 0 -4.77083e-015 -1.08469e-007 -5.00724e-007 6.82711e-007 2.16937e-007 1.00145e-006 -1.36542e-006 -1.08469e-007 -5.00724e-007 6.82711e-007 -1.08469e-007 -5.00724e-007 6.82711e-007 2.16937e-007 1.00145e-006 -1.36542e-006 -1.08469e-007 -5.00724e-007 6.82711e-007 7.99916 -0.194721 1.89495e-006 56.3185 -0.490175 -1.03845 -1.92524 -0.310186 9.11582 6.49224 2.60876 0.0254005 -2.87224e-008 7.00611e-007 -4.75766e-007 1.0438e-007 -4.75766e-007 -7.00611e-007 -2.87224e-008 7.00611e-007 -4.75766e-007 1.05356e-014 0 -0 -2.87224e-008 7.00611e-007 -4.75766e-007 1.0438e-007 -4.75766e-007 -7.00611e-007 -2.87224e-008 7.00611e-007 -4.75766e-007 -2.87224e-008 7.00611e-007 -4.75766e-007 1.0438e-007 -4.75766e-007 -7.00611e-007 -2.87224e-008 7.00611e-007 -4.75766e-007 1.05356e-014 0 -0 -2.87224e-008 7.00611e-007 -4.75766e-007 1.0438e-007 -4.75766e-007 -7.00611e-007 -2.87224e-008 7.00611e-007 -4.75766e-007 -2.87224e-008 7.00611e-007 -4.75766e-007 1.0438e-007 -4.75766e-007 -7.00611e-007 -2.87224e-008 7.00611e-007 -4.75766e-007 6.81529 -21.5175 14.1787 2.03907 40.6916 -0.510693 -11.176 -16.7825 2.2652 -5.7289 -21.7022 -14.0812 -2.30209 41.0138 0.661495 10.3041 -17.2281 -2.61556 
